<?xml version="1.0" standalone="no"?>
<!DOCTYPE svg PUBLIC "-//W3C//DTD SVG 20010904//EN"
 "http://www.w3.org/TR/2001/REC-SVG-20010904/DTD/svg10.dtd">
<svg version="1.0" xmlns="http://www.w3.org/2000/svg"
 width="1620.000000pt" height="1080.000000pt" viewBox="0 0 1620.000000 1080.000000"
 preserveAspectRatio="xMidYMid meet">
<metadata>
Created by potrace 1.15, written by Peter Selinger 2001-2017
</metadata>
<g transform="translate(0.000000,1080.000000) scale(0.100000,-0.100000)"
fill="#000000" stroke="none">
<path d="M15982 8645 c-17 -19 -50 -73 -74 -121 -41 -82 -43 -92 -42 -168 3
-182 2 -181 71 -166 27 7 52 5 83 -5 25 -7 41 -14 36 -14 -4 -1 -1 -12 8 -26
9 -13 16 -31 16 -39 0 -8 7 -19 16 -24 14 -8 14 -12 1 -45 -9 -19 -24 -40 -35
-46 -33 -18 -91 -13 -120 10 -15 12 -35 18 -47 15 -11 -3 -38 -1 -60 4 -44 10
-129 -5 -106 -19 10 -6 9 -10 -4 -15 -24 -9 -25 -8 -25 14 0 12 -7 20 -16 20
-9 0 -38 19 -66 41 l-49 42 -87 -1 c-48 0 -109 0 -136 -1 -27 -1 -54 3 -60 9
-18 18 -11 73 17 132 32 67 34 103 8 118 -28 14 -77 13 -93 -3 -7 -8 -31 -20
-53 -27 -61 -19 -104 -49 -121 -83 -29 -56 -98 -93 -128 -68 -7 6 -28 10 -48
9 -19 -1 -40 2 -46 6 -18 11 -92 -13 -92 -30 0 -34 -41 -94 -73 -108 -19 -7
-42 -25 -53 -38 -21 -27 -99 -80 -111 -76 -5 2 -30 -8 -56 -21 -60 -29 -80
-58 -72 -103 8 -40 -15 -69 -38 -49 -8 6 -16 8 -20 5 -3 -3 -17 2 -31 11 -19
13 -26 28 -31 70 -4 30 -13 60 -21 66 -21 18 -17 32 9 26 12 -3 37 0 55 6 30
11 36 20 63 100 16 48 29 108 29 132 l0 45 -48 0 c-27 0 -52 -3 -56 -7 -15
-15 -99 -30 -142 -25 -40 4 -44 2 -54 -22 -5 -15 -10 -39 -10 -54 0 -28 -32
-58 -50 -47 -5 3 -20 -1 -32 -9 -13 -8 -36 -17 -53 -20 -51 -8 -104 -26 -110
-37 -4 -5 -7 -61 -8 -124 l-2 -115 33 -11 c28 -9 40 -8 68 7 33 18 36 18 86 0
75 -26 97 -45 98 -82 0 -50 -26 -73 -95 -81 -33 -3 -66 -12 -73 -20 -8 -7 -17
-11 -22 -8 -5 3 -15 -3 -22 -13 -7 -10 -33 -30 -58 -43 -25 -13 -49 -30 -53
-36 -4 -7 -17 -13 -27 -13 -10 0 -22 -4 -25 -10 -3 -5 -20 -10 -36 -10 -17 0
-49 -13 -74 -30 -24 -16 -48 -30 -54 -30 -22 0 -76 -58 -97 -106 -32 -72 -68
-96 -147 -95 -34 0 -82 -4 -106 -10 -42 -9 -46 -8 -73 19 -27 26 -29 35 -30
106 -1 96 -22 131 -74 123 -72 -12 -142 50 -202 181 -22 49 -26 71 -27 152 0
89 -17 160 -37 160 -4 0 -13 -18 -19 -41 -17 -54 -80 -109 -126 -109 -19 0
-55 11 -81 24 -26 13 -73 29 -106 36 -68 14 -71 12 -81 -59 -11 -83 -23 -106
-65 -130 -22 -12 -38 -27 -35 -32 11 -17 -60 -9 -100 11 -50 25 -52 25 -59 -5
-19 -76 -226 -128 -305 -77 -17 12 -45 15 -106 13 -99 -3 -136 12 -206 86 -60
62 -96 134 -105 211 -4 37 -11 59 -16 55 -6 -3 -8 -24 -4 -49 5 -40 4 -44 -15
-44 -17 0 -20 -4 -15 -23 4 -19 0 -26 -19 -35 -14 -6 -25 -18 -25 -27 0 -8 -4
-15 -9 -15 -5 0 -25 -48 -45 -107 -31 -95 -33 -109 -20 -127 9 -13 14 -46 14
-88 0 -61 -3 -70 -32 -104 -17 -20 -42 -40 -55 -45 -23 -8 -26 -30 -10 -57 5
-7 2 -15 -9 -19 -16 -6 -16 -7 1 -19 16 -12 17 -18 7 -39 -7 -14 -12 -37 -12
-50 0 -26 -30 -38 -86 -33 -40 3 -85 -30 -77 -56 5 -18 1 -19 -57 -13 -40 3
-74 13 -98 29 -20 13 -50 30 -65 38 -16 8 -33 23 -39 35 -6 11 -22 33 -35 48
-13 16 -21 33 -17 38 3 5 0 9 -5 9 -6 0 -11 7 -11 15 0 9 -7 27 -16 40 -31 48
-42 116 -33 216 9 111 4 155 -22 188 -14 17 -26 22 -44 18 -14 -2 -28 0 -31 5
-19 30 -28 -28 -39 -232 -6 -113 -19 -167 -44 -188 -9 -8 -11 -11 -5 -8 19 10
24 -20 7 -44 -13 -19 -13 -24 -2 -31 10 -6 11 -11 2 -20 -19 -19 -35 0 -30 38
3 21 0 36 -7 39 -6 3 -12 32 -12 73 -1 38 -8 82 -16 98 -7 15 -15 62 -17 103
-1 41 -5 77 -7 79 -5 6 -24 -48 -26 -75 -2 -14 -7 -23 -14 -20 -7 3 -15 -2
-18 -10 -3 -8 -12 -14 -21 -14 -10 0 -15 -10 -15 -31 0 -26 3 -31 20 -26 15 4
20 0 20 -14 0 -10 6 -19 14 -19 19 0 28 -82 13 -127 -8 -25 -29 -50 -64 -77
-33 -26 -52 -49 -52 -63 -1 -12 -6 -34 -11 -49 -8 -19 -8 -30 0 -38 13 -13 13
-49 0 -62 -5 -5 -12 -23 -14 -39 -8 -64 -52 -116 -71 -85 -3 5 -20 10 -38 10
-93 2 -100 4 -119 38 -15 27 -18 52 -16 125 1 51 -2 120 -6 154 -5 40 -4 69 4
82 12 23 20 69 25 141 3 54 -20 92 -71 116 -41 20 -50 34 -59 95 -7 50 8 125
28 132 9 3 8 9 -4 23 -9 10 -22 43 -30 72 -12 49 -23 64 -31 42 -1 -5 -23 -20
-48 -32 -40 -21 -46 -28 -53 -68 -4 -25 -6 -76 -3 -115 6 -81 -5 -157 -41
-269 l-26 -80 26 -20 c28 -23 27 -15 27 -227 0 -97 -3 -110 -25 -140 -37 -52
-69 -113 -67 -127 3 -11 -51 -30 -70 -24 -5 1 -8 -2 -8 -7 0 -20 -43 -6 -51
17 -8 22 -13 23 -47 17 -20 -4 -41 -10 -47 -15 -5 -4 -39 -6 -74 -4 -48 3 -76
12 -110 33 -25 15 -46 32 -46 37 0 5 -17 27 -38 49 -36 38 -57 87 -57 130 0
41 -45 60 -70 30 -9 -11 -17 -12 -31 -4 -32 17 -38 3 -32 -74 l6 -73 -39 -41
-39 -41 -70 5 c-82 7 -160 38 -174 71 -6 12 -19 25 -28 29 -10 4 -31 17 -46
30 -16 13 -39 23 -51 23 -13 0 -26 3 -30 7 -3 4 -32 8 -64 8 -78 2 -140 38
-172 98 -11 23 -18 27 -39 22 -14 -4 -28 -11 -31 -16 -3 -4 -34 -18 -69 -29
-50 -16 -77 -33 -134 -86 -39 -36 -83 -72 -98 -80 -41 -21 -129 -21 -171 -1
-62 29 -124 36 -181 21 -103 -27 -203 -8 -245 49 -7 9 -19 17 -25 17 -7 0 -23
9 -37 20 -34 27 -55 25 -91 -7 -17 -16 -36 -27 -41 -25 -5 1 -18 -6 -29 -17
-11 -10 -43 -22 -71 -25 -27 -4 -60 -13 -72 -21 -37 -24 -119 -29 -160 -10
-20 10 -36 20 -36 24 0 3 -14 21 -30 40 -16 18 -35 48 -42 67 -6 19 -15 34
-19 34 -4 0 -29 -25 -55 -56 -71 -83 -111 -97 -186 -66 -34 14 -55 46 -63 97
-10 60 -33 136 -46 151 -12 14 -70 19 -83 7 -3 -4 -29 -6 -57 -4 -62 3 -78
-13 -74 -76 3 -32 0 -43 -11 -43 -8 0 -14 -6 -14 -14 0 -27 -46 -46 -94 -40
-26 4 -46 10 -46 14 0 4 -18 10 -40 14 -22 3 -40 10 -40 15 0 6 -12 6 -29 1
-16 -4 -32 -6 -34 -4 -2 3 -25 -6 -49 -19 -35 -18 -56 -23 -92 -20 -61 6 -108
26 -131 56 l-18 25 -49 -34 c-28 -20 -60 -34 -76 -34 -15 1 -47 -3 -72 -9 -50
-10 -166 -6 -184 7 -27 21 -100 31 -221 31 -71 0 -135 -5 -142 -10 -6 -6 -17
-9 -25 -8 -7 2 -33 -1 -58 -6 -25 -5 -50 -8 -57 -7 -6 2 -27 -7 -45 -18 l-35
-20 -18 20 c-10 11 -29 20 -41 20 -13 0 -29 8 -35 19 -8 11 -19 16 -31 13 -11
-2 -31 1 -44 9 -21 11 -27 11 -33 0 -7 -10 -10 -11 -16 -1 -8 12 7 28 45 50 8
5 11 12 7 17 -5 4 -13 0 -18 -10 -6 -9 -14 -15 -18 -12 -5 2 -16 -4 -26 -15
-21 -23 -45 -26 -64 -7 -8 8 -44 11 -122 10 -108 -3 -110 -3 -135 24 -14 15
-21 29 -15 31 15 5 14 72 -1 72 -6 0 -19 7 -29 16 -22 20 -87 35 -91 22 -7
-21 -201 -29 -221 -9 -18 18 -65 13 -116 -14 -62 -31 -121 -28 -191 8 -33 17
-57 24 -64 18 -22 -17 -163 -22 -224 -8 -92 23 -125 21 -158 -9 -16 -14 -54
-48 -84 -75 -85 -75 -93 -83 -130 -134 -41 -57 -70 -70 -174 -79 -44 -4 -95
-14 -114 -22 -46 -19 -53 -18 -155 13 l-89 27 -92 -19 c-92 -18 -92 -18 -141
4 -65 29 -77 28 -165 -1 -194 -65 -177 -62 -301 -48 -102 11 -197 19 -424 35
-38 2 -119 9 -180 15 -60 6 -166 13 -235 15 -118 5 -356 21 -427 30 l-33 4 0
-548 0 -548 177 -6 c100 -4 205 -2 242 3 61 9 1185 26 2291 35 600 4 2330 7
2395 4 28 -2 84 2 126 9 54 8 319 11 895 11 1542 -2 3096 1 3104 6 4 2 500 7
1101 11 776 4 1140 3 1252 -5 137 -10 167 -10 220 4 130 33 174 48 237 81 90
46 191 77 435 135 116 27 334 78 485 114 151 36 297 65 324 65 35 0 62 8 92
25 24 14 100 39 169 55 70 17 166 44 213 59 48 16 130 36 182 45 52 9 153 30
223 46 l128 30 98 88 c361 324 764 515 1241 589 85 13 174 18 343 18 l227 0 0
482 c0 266 -2 483 -4 483 -3 0 -20 -8 -38 -19 -38 -22 -124 -34 -153 -21 -11
5 -17 9 -13 9 4 1 -2 19 -13 41 -20 37 -20 42 -5 92 8 30 31 72 52 96 43 51
53 83 42 141 -15 79 -39 90 -86 36z m-1274 -1101 c16 -11 22 -25 22 -54 0 -21
-4 -42 -10 -45 -5 -3 -10 -15 -10 -25 0 -10 -8 -33 -17 -50 -16 -28 -22 -31
-53 -26 -20 3 -44 16 -57 31 -23 26 -31 69 -14 79 4 3 6 18 3 33 -10 54 83 94
136 57z m-4316 -584 c6 0 8 -9 5 -20 -3 -11 -2 -20 2 -20 4 0 14 -12 22 -27
12 -22 16 -69 18 -205 2 -162 1 -178 -17 -196 -45 -45 -107 10 -103 93 1 22 3
81 5 130 4 106 13 166 26 179 6 6 10 22 10 37 0 15 3 36 7 46 7 17 8 17 11 1
2 -10 8 -18 14 -18z"/>
<path d="M15840 7239 c-47 -5 -96 -12 -110 -16 -14 -3 -36 -7 -50 -8 -14 -1
-42 -5 -63 -9 -20 -4 -53 -9 -72 -11 -19 -3 -70 -15 -112 -26 -43 -12 -93 -24
-110 -27 -20 -2 -30 -8 -26 -15 4 -6 -2 -8 -15 -5 -12 4 -26 0 -33 -8 -6 -8
-23 -14 -36 -14 -14 0 -76 -25 -138 -55 -63 -30 -119 -55 -124 -55 -6 0 -11
-3 -11 -7 0 -5 -26 -21 -58 -38 -31 -16 -61 -35 -65 -42 -5 -8 -12 -11 -18 -8
-5 4 -9 2 -9 -4 0 -6 -16 -18 -35 -27 -19 -9 -35 -21 -35 -27 0 -6 -3 -8 -6
-4 -7 7 -165 -108 -209 -153 -17 -17 -34 -27 -39 -23 -4 4 -6 4 -5 -2 2 -5
-34 -48 -79 -95 -139 -144 -242 -266 -242 -288 0 -6 -3 -12 -7 -14 -19 -8 -83
-106 -127 -195 -6 -13 -14 -23 -18 -23 -5 0 -8 -9 -8 -20 0 -11 -5 -20 -10
-20 -6 0 -13 -8 -17 -17 -3 -10 -23 -55 -44 -100 -84 -182 -181 -528 -193
-693 -15 -206 -23 -380 -31 -715 -4 -121 -8 -245 -10 -275 -8 -136 -18 -245
-21 -249 -2 -2 -4 72 -5 165 -1 151 -3 281 -8 427 -1 34 -5 47 -16 47 -8 0
-22 11 -32 23 -17 23 -18 23 -33 6 -14 -18 -18 -17 -68 26 -36 30 -65 46 -85
47 -125 7 -170 20 -240 68 -34 24 -73 53 -87 66 -14 12 -51 34 -83 49 -61 29
-79 26 -92 -16 -9 -28 -23 -24 -64 20 -54 58 -119 83 -195 75 -52 -5 -67 -3
-96 15 -93 56 -138 72 -237 80 -68 6 -109 15 -133 29 -19 11 -78 34 -130 52
-52 17 -109 38 -126 46 -63 28 -234 84 -258 84 -14 0 -58 12 -98 27 -61 22
-88 27 -162 25 -94 -1 -126 -7 -126 -23 0 -5 8 -13 18 -17 33 -13 157 -101
221 -157 35 -31 84 -66 110 -80 25 -13 82 -59 127 -103 44 -43 129 -117 190
-164 60 -47 140 -111 178 -142 l69 -56 81 0 c95 0 174 -12 266 -42 136 -44
288 -135 370 -224 34 -37 34 -37 -20 7 -95 77 -126 98 -205 134 -81 37 -183
67 -196 59 -5 -2 -24 2 -43 10 -45 19 -289 14 -361 -8 -138 -41 -340 -139
-328 -159 3 -5 1 -7 -5 -4 -24 15 -164 -125 -238 -238 -70 -108 -89 -147 -120
-245 l-24 -75 5 55 c3 30 22 101 41 157 l34 101 -29 59 c-73 146 -85 173 -111
258 -31 101 -95 233 -148 309 -19 28 -49 80 -65 116 -47 104 -104 170 -207
237 -75 50 -128 60 -403 79 -215 15 -242 15 -280 1 -23 -9 -61 -18 -83 -22
-29 -4 -58 -21 -99 -55 -32 -27 -86 -65 -119 -85 -34 -20 -75 -48 -93 -63 -62
-53 -240 -180 -385 -275 -81 -54 -160 -113 -175 -133 -26 -33 -155 -129 -195
-146 -10 -4 -20 -18 -23 -31 -7 -27 -48 -54 -75 -49 -9 1 -23 -4 -30 -13 -7
-8 -17 -15 -22 -15 -18 0 -38 -29 -39 -57 0 -17 -10 6 -24 57 -37 135 -47 161
-109 276 -31 59 -98 154 -108 154 -4 0 -8 7 -8 15 0 8 -4 15 -9 15 -5 0 -12 8
-16 19 -3 10 -24 31 -46 45 -22 15 -37 31 -34 37 4 5 3 8 -2 7 -4 -2 -30 18
-57 44 -27 26 -53 45 -57 42 -5 -3 -9 -1 -9 4 0 5 -14 15 -30 22 -17 7 -28 15
-26 18 6 5 -37 42 -49 42 -11 0 -119 53 -136 67 -15 13 -113 49 -158 59 -13 3
-40 12 -60 20 -20 8 -72 18 -116 20 -44 3 -91 9 -105 13 -46 14 -365 -18 -395
-39 -5 -4 -23 -10 -40 -14 -51 -12 -188 -69 -224 -93 -19 -13 -39 -23 -46 -23
-6 0 -20 -9 -30 -20 -10 -11 -20 -18 -23 -16 -2 3 -18 -8 -36 -24 -17 -17 -34
-30 -38 -30 -8 0 -68 -59 -68 -67 0 -3 37 -3 81 0 73 6 90 11 158 51 235 138
465 188 717 156 298 -37 579 -208 746 -453 92 -136 171 -348 179 -487 4 -53 3
-55 -21 -55 -14 1 -28 -3 -31 -7 -3 -5 -14 16 -24 47 -11 30 -22 55 -26 55
-18 0 -26 -31 -24 -90 2 -68 -15 -120 -39 -120 -7 0 -23 -9 -35 -19 -13 -11
-36 -23 -52 -26 -17 -4 -35 -17 -40 -29 -6 -12 -23 -28 -37 -34 -44 -20 -84
-45 -112 -72 -60 -57 -99 -89 -129 -104 -17 -9 -37 -26 -44 -37 -6 -11 -34
-34 -60 -51 -27 -17 -61 -43 -77 -57 -15 -14 -34 -30 -41 -36 -8 -5 -30 -22
-49 -36 -19 -14 -45 -29 -57 -33 -12 -4 -36 -20 -52 -35 -17 -16 -52 -43 -78
-60 -27 -17 -64 -45 -85 -63 -20 -18 -71 -60 -113 -93 -42 -33 -93 -75 -113
-93 -20 -17 -45 -35 -54 -38 -10 -3 -18 -10 -18 -15 0 -5 -7 -9 -15 -9 -8 0
-19 -9 -24 -19 -6 -10 -30 -28 -53 -40 -24 -11 -59 -34 -78 -51 -19 -16 -39
-30 -44 -30 -7 0 -22 -12 -77 -62 -10 -10 -21 -18 -24 -18 -6 0 -9 -2 -79 -61
-27 -23 -75 -60 -105 -83 -31 -22 -60 -47 -65 -55 -4 -7 -16 -21 -25 -30 -9
-9 -23 -29 -31 -45 -13 -24 -88 -86 -104 -86 -4 0 -29 -16 -56 -35 -27 -19
-54 -35 -59 -35 -5 0 -11 -7 -15 -15 -3 -8 -17 -21 -32 -27 -14 -7 -45 -30
-67 -51 -23 -21 -64 -53 -92 -71 -27 -18 -69 -54 -93 -79 -23 -26 -47 -47 -52
-47 -6 0 -10 -4 -10 -10 0 -5 -7 -10 -15 -10 -8 0 -15 -7 -15 -15 0 -8 -4 -15
-9 -15 -4 0 -26 -18 -47 -40 -22 -22 -46 -40 -54 -40 -20 -1 -52 -25 -43 -33
3 -4 -1 -7 -10 -7 -10 0 -17 -5 -17 -10 0 -6 -4 -9 -8 -8 -10 4 -85 -34 -94
-47 -4 -5 -10 -6 -14 -2 -4 3 -14 -1 -23 -11 -9 -9 -41 -30 -71 -46 -47 -26
-83 -52 -124 -92 -7 -6 -22 -15 -34 -18 -12 -4 -22 -13 -22 -21 0 -7 -4 -15
-9 -17 -8 -3 -62 -45 -110 -85 -14 -13 -30 -23 -34 -23 -5 0 -5 -4 -2 -10 3
-5 0 -10 -8 -10 -8 0 -45 -17 -83 -37 -38 -21 -91 -49 -119 -63 -27 -14 -53
-29 -57 -35 -7 -10 -11 -11 -42 -14 -8 0 -17 -10 -21 -20 -3 -11 -18 -24 -34
-29 -15 -5 -34 -17 -43 -25 -9 -9 -21 -18 -28 -19 -6 -2 -27 -18 -46 -36 -20
-17 -42 -32 -50 -32 -8 0 -14 -4 -14 -9 0 -5 -13 -14 -28 -20 -15 -6 -47 -29
-70 -50 -23 -21 -42 -37 -42 -34 0 2 -6 -2 -13 -9 -8 -7 -26 -22 -42 -33 -15
-11 -36 -28 -47 -38 -10 -9 -20 -17 -23 -17 -9 0 -160 -104 -163 -112 -2 -5
-11 -8 -21 -8 -9 0 -37 -18 -61 -40 -25 -22 -52 -40 -60 -40 -9 0 -23 -9 -33
-20 -10 -12 -22 -18 -27 -15 -5 3 -14 -4 -20 -15 -6 -11 -17 -20 -25 -20 -8 0
-15 -4 -15 -10 0 -5 -7 -10 -15 -10 -8 0 -15 -7 -15 -15 0 -8 -7 -15 -16 -15
-9 0 -38 -18 -65 -41 -27 -22 -49 -38 -49 -35 0 6 -10 -1 -49 -34 -9 -8 -33
-24 -52 -34 -40 -23 -81 -52 -115 -84 -14 -12 -34 -22 -44 -22 -11 0 -20 -4
-20 -10 0 -5 -7 -10 -15 -10 -8 0 -15 -4 -15 -10 0 -5 -16 -17 -36 -26 -20 -9
-45 -30 -56 -45 -12 -16 -25 -26 -30 -23 -5 3 -15 -2 -23 -12 -7 -11 -17 -19
-22 -19 -4 0 -36 -24 -71 -53 -35 -29 -68 -50 -73 -47 -5 4 -9 1 -9 -6 0 -7
-3 -10 -6 -6 -6 6 -17 -1 -53 -34 -10 -8 -25 -18 -34 -22 -9 -3 -17 -16 -17
-29 0 -21 0 -21 -16 -2 -8 10 -13 13 -9 7 3 -8 0 -13 -8 -13 -8 0 -22 -11 -31
-25 -9 -14 -20 -24 -24 -21 -5 3 -14 1 -22 -5 -9 -5 524 -9 1368 -9 l1383 0
48 53 c26 28 85 95 130 147 46 52 166 181 268 286 191 198 211 223 258 311 15
29 40 64 56 77 16 14 29 29 29 33 0 14 81 98 113 117 27 17 50 17 202 0 54 -6
96 -27 136 -71 49 -52 47 -68 -13 -107 -79 -53 -124 -96 -148 -143 -12 -24
-35 -54 -51 -67 -16 -14 -29 -28 -29 -33 0 -4 -16 -26 -35 -47 -19 -22 -37
-48 -41 -58 -3 -10 -10 -18 -15 -18 -5 0 -9 -7 -9 -15 0 -8 -9 -22 -19 -32
-11 -10 -22 -30 -26 -46 -4 -15 -13 -31 -19 -35 -7 -4 -25 -25 -42 -47 -45
-62 -48 -65 -66 -83 -10 -9 -18 -22 -18 -29 0 -7 -7 -13 -15 -13 -8 0 -15 -7
-15 -15 0 -8 -5 -15 -10 -15 -6 0 -15 -11 -20 -24 -5 -13 -27 -37 -49 -52 -22
-16 -39 -35 -36 -42 2 -6 0 -12 -5 -12 -6 0 -10 -4 -10 -10 0 -7 171 -10 493
-10 l492 0 15 23 c21 32 40 65 84 143 45 79 258 407 399 612 16 24 46 55 67
69 34 21 47 24 97 20 91 -8 122 -18 142 -43 10 -13 24 -24 30 -24 14 0 14 -35
0 -63 -10 -17 -49 -63 -95 -111 -6 -6 -18 -33 -27 -60 -9 -27 -57 -117 -106
-200 -48 -83 -103 -178 -120 -211 -18 -33 -45 -81 -61 -107 l-29 -48 743 0
744 0 10 28 c6 15 24 69 42 121 17 52 35 101 40 111 5 9 18 61 29 116 11 54
36 149 55 209 18 61 45 149 60 197 14 48 37 100 51 116 36 43 137 81 239 88
81 7 85 6 110 -19 14 -14 26 -36 26 -49 0 -31 -25 -146 -40 -183 -6 -16 -18
-68 -26 -113 -8 -46 -24 -107 -35 -135 -39 -98 -48 -132 -64 -242 -14 -97 -33
-182 -51 -230 -5 -12 4 -15 49 -15 57 0 66 5 72 43 2 12 7 41 11 65 4 23 10
42 15 42 5 0 6 6 3 13 -6 17 20 52 33 44 11 -7 7 -92 -5 -111 -4 -6 -12 -30
-18 -54 l-11 -42 342 0 343 0 -1 23 c0 12 3 42 7 67 4 25 9 98 11 162 2 65 7
123 10 128 4 6 9 83 11 172 4 107 10 173 19 195 19 44 64 93 82 86 7 -3 13 0
13 7 0 7 7 10 15 6 8 -3 15 -1 15 4 0 5 18 8 40 7 35 -1 39 -4 34 -22 -4 -11
-11 -23 -16 -26 -6 -4 -6 -9 1 -13 6 -4 11 -16 11 -26 0 -10 6 -23 14 -27 12
-7 13 -17 4 -56 -7 -33 -7 -62 0 -90 11 -48 10 -70 -8 -112 -21 -50 -29 -94
-18 -97 23 -8 25 -95 5 -165 -11 -37 -20 -87 -21 -111 0 -24 -5 -41 -11 -38
-6 2 -10 -13 -10 -35 l0 -39 388 0 c383 0 389 0 394 20 l6 21 14 -21 c19 -27
84 -29 78 -2 -2 13 3 18 18 19 12 0 16 -1 10 -4 -7 -3 -13 -11 -13 -19 0 -12
113 -14 776 -14 l775 0 -15 22 c-9 12 -16 33 -16 46 0 12 -7 25 -15 28 -9 4
-15 19 -15 40 0 21 -8 42 -20 54 -11 11 -20 30 -20 43 0 13 -4 27 -9 33 -6 5
-12 23 -15 39 -12 66 -18 85 -27 85 -5 0 -9 10 -9 23 0 12 -7 31 -15 41 -8 10
-12 23 -9 28 3 5 -1 17 -9 26 -19 23 -29 52 -16 52 6 0 6 6 0 18 -10 19 -11
23 -11 54 0 17 -3 19 -12 10 -7 -7 -17 -12 -22 -12 -6 0 -1 8 11 17 20 17 20
17 1 33 -18 14 -22 31 -27 103 -1 9 -8 17 -16 17 -9 0 -15 9 -15 23 0 12 -5
40 -11 61 -8 29 -13 36 -20 25 -7 -11 -9 -10 -10 6 -3 42 -8 62 -28 115 -12
30 -21 67 -21 82 0 16 -4 28 -9 28 -4 0 -11 21 -15 46 -3 26 -11 53 -17 60 -6
7 -9 19 -6 26 2 7 -2 26 -10 41 -8 15 -11 32 -8 37 3 5 0 12 -6 15 -6 4 -8 17
-5 30 4 14 0 28 -11 36 -20 18 -46 77 -38 90 4 5 -1 12 -10 15 -16 7 -35 41
-42 78 -2 10 -12 31 -23 46 -11 16 -20 38 -20 50 0 11 -4 18 -10 15 -5 -3 -10
0 -10 7 0 8 -9 31 -20 53 -11 22 -20 44 -20 50 0 17 -79 166 -109 204 -34 45
-90 139 -125 211 -32 64 -33 67 -110 185 -32 50 -70 109 -85 133 -14 24 -47
69 -73 99 -27 31 -48 60 -48 65 0 6 -28 41 -62 79 -33 38 -58 72 -55 76 4 3
-1 20 -10 37 -31 60 -33 65 -23 71 5 3 18 -3 30 -15 37 -37 57 -17 21 21 -11
12 -22 37 -26 57 -4 19 -22 54 -41 77 -33 41 -43 65 -26 65 13 0 41 -34 65
-78 25 -46 103 -132 119 -132 7 0 9 20 5 61 -4 51 -11 67 -36 93 -17 18 -31
37 -31 43 0 6 -7 13 -14 16 -8 3 -18 23 -21 44 -8 53 -39 153 -46 153 -4 0
-10 15 -13 34 -7 38 -47 86 -71 86 -9 0 -18 8 -22 18 -3 9 -15 25 -25 36 -11
10 -17 24 -14 32 3 8 -1 14 -9 14 -14 0 -21 36 -17 98 0 12 -3 22 -7 22 -5 0
-6 25 -4 55 5 62 -6 71 -31 23 -15 -33 -16 -33 -16 -6 0 14 -5 28 -10 30 -16
5 24 124 65 193 80 133 165 209 310 280 118 58 226 80 355 72 136 -8 171 -22
291 -116 176 -139 203 -159 306 -234 56 -40 165 -124 244 -188 79 -63 185
-142 234 -174 98 -65 340 -243 420 -311 28 -23 59 -44 70 -48 11 -3 31 -16 45
-28 35 -32 127 -99 183 -133 126 -78 174 -114 235 -175 37 -37 82 -75 100 -84
18 -9 41 -25 50 -34 16 -15 123 -106 147 -125 6 -4 28 -21 50 -37 45 -33 54
-40 143 -107 35 -26 73 -55 86 -63 12 -8 84 -60 161 -115 77 -55 167 -118 200
-141 33 -22 98 -67 145 -100 47 -32 119 -81 159 -109 40 -27 95 -66 121 -85
27 -19 59 -42 72 -51 13 -10 114 -85 226 -168 111 -83 204 -151 207 -151 3 0
5 476 5 1058 0 1135 1 1103 -49 1089 -11 -3 -19 -1 -16 3 3 5 -16 12 -42 16
-27 4 -68 16 -93 27 -25 12 -49 22 -55 22 -5 1 -23 7 -38 13 -16 7 -31 12 -34
12 -4 0 -15 8 -25 17 -16 15 -21 15 -28 3 -7 -12 -12 -12 -28 3 -10 9 -34 20
-53 23 -19 4 -38 10 -44 14 -5 4 -19 6 -30 4 -11 -1 -22 0 -25 4 -12 16 -52
32 -82 32 -18 1 -44 7 -58 15 -14 8 -35 14 -47 15 -13 0 -23 5 -23 10 0 6 -11
10 -24 10 -14 0 -27 4 -30 9 -3 5 -26 12 -51 15 -25 4 -45 12 -45 17 0 6 -7 6
-19 -1 -12 -6 -22 -6 -25 -1 -4 5 0 12 6 15 9 4 8 5 -2 4 -29 -2 -101 15 -113
26 -13 13 -44 28 -67 33 -76 15 -124 22 -130 18 -19 -12 -185 56 -207 85 -11
13 -12 13 -13 0 -1 -13 -2 -13 -13 1 -14 17 -96 59 -117 59 -18 0 -78 19 -115
37 -17 7 -42 15 -55 17 -68 7 -180 31 -180 38 0 4 -9 8 -20 8 -10 0 -35 8 -55
17 -29 14 -40 15 -55 5 -17 -10 -20 -7 -31 23 -7 19 -19 35 -25 35 -11 0 -54
96 -54 121 0 6 -7 17 -15 25 -13 14 -15 13 -15 -5 0 -12 -4 -21 -10 -21 -5 0
-10 11 -10 24 0 13 -10 46 -22 73 -21 45 -22 65 -25 293 -2 180 2 274 13 355
67 472 313 927 670 1239 97 85 231 179 253 179 36 -1 1045 254 1284 324 l87
26 0 67 0 67 -47 7 c-80 12 -223 14 -313 5z m-1337 -3832 c20 -14 25 -22 17
-27 -10 -6 -9 -19 4 -56 12 -37 14 -56 6 -85 -12 -43 -51 -79 -87 -79 -38 0
-280 140 -310 179 -19 25 -15 68 9 90 29 28 75 35 174 27 58 -4 84 -3 84 5 0
10 42 -12 103 -54z m-4352 -11 l47 -17 7 -66 c10 -95 18 -107 78 -122 91 -23
99 -32 95 -111 -1 -38 1 -72 5 -76 4 -5 200 -9 435 -10 235 -2 433 -3 440 -3
6 -1 12 -8 12 -16 0 -13 -89 -15 -737 -16 -406 0 -919 -1 -1139 -1 -221 0
-406 2 -413 6 -32 20 17 26 212 26 117 0 222 3 234 6 15 4 32 25 48 60 27 57
97 116 103 88 2 -8 14 -14 28 -14 13 0 24 -4 24 -10 0 -5 7 -10 15 -10 18 0
20 -41 3 -58 -7 -7 -8 -12 -2 -12 5 0 4 -4 -3 -8 -8 -5 -9 -13 -3 -22 8 -12
48 -16 223 -18 233 -3 270 2 263 40 -40 199 -46 223 -68 239 -43 33 -167 61
-261 60 -88 -2 -127 9 -127 33 0 18 20 26 105 42 96 17 315 12 376 -10z m407
-7 c33 -11 78 -71 67 -89 -3 -5 -15 -15 -27 -21 -16 -9 -19 -8 -13 2 6 9 3 11
-8 6 -14 -5 -44 2 -102 24 -11 4 -41 13 -67 19 -26 7 -49 19 -53 28 -3 8 -4
16 -3 17 35 26 149 34 206 14z m4477 -323 l87 -55 -44 -6 c-24 -3 -86 -5 -138
-3 l-95 3 -3 28 c-2 17 7 44 24 72 33 51 22 53 169 -39z m-3760 -173 c41 -33
34 -33 -1145 -33 -1002 0 -1160 2 -1160 15 0 11 17 15 68 17 167 7 2228 8
2237 1z m-2865 -1802 c0 -5 -4 -11 -8 -13 -4 -1 -21 -25 -38 -53 l-31 -50
-134 -2 c-152 -2 -164 2 -154 56 13 69 19 71 202 71 92 0 163 -4 163 -9z
m3161 -208 c32 -19 36 -42 19 -105 -10 -36 -23 -46 -70 -54 -14 -3 -29 -10
-35 -16 -7 -8 -6 -9 4 -3 9 5 12 4 7 -3 -4 -7 -15 -12 -24 -12 -13 0 -14 -2
-3 -9 11 -7 9 -13 -8 -30 -11 -11 -18 -27 -15 -35 3 -8 1 -23 -5 -33 -9 -16
-10 -16 -11 5 0 12 0 25 1 28 0 3 -7 11 -16 17 -8 7 -18 29 -22 50 -6 39 13
127 28 127 5 0 9 7 9 16 0 8 4 13 8 10 4 -2 26 11 47 29 47 40 48 40 86 18z"/>
<path d="M0 5071 c0 -138 4 -251 8 -251 5 0 14 -12 20 -26 13 -26 2 -64 -18
-64 -6 0 -10 -29 -10 -65 0 -61 1 -65 23 -65 45 0 455 41 567 56 63 8 144 19
180 24 36 4 108 14 160 20 130 17 132 17 157 19 14 0 20 6 18 14 -4 8 -22 11
-58 9 -84 -5 -119 -3 -169 10 -45 11 -63 26 -35 30 6 0 23 3 37 5 108 15 220
3 251 -26 19 -17 20 -21 6 -21 -9 0 -17 -4 -17 -10 0 -18 22 -11 129 43 120
59 70 54 448 42 188 -6 191 -6 206 16 11 16 13 28 6 46 -13 35 -11 53 5 53 8
0 32 16 53 35 47 43 65 44 103 5 16 -16 34 -30 39 -30 6 0 6 -11 0 -30 -6 -16
-15 -30 -20 -30 -5 0 -9 -6 -9 -14 0 -7 -7 -19 -15 -26 -8 -7 -12 -16 -9 -21
7 -12 150 -11 267 0 51 5 227 22 392 38 l300 28 50 48 c69 65 176 138 281 191
85 43 281 115 320 117 11 1 -1 5 -26 9 -25 4 -193 7 -375 7 -181 0 -451 5
-600 11 -148 6 -416 14 -595 17 -179 3 -444 10 -590 15 -146 5 -538 12 -872
16 l-608 6 0 -251z"/>
<path d="M4326 5191 c40 -15 115 -51 168 -80 59 -31 109 -51 129 -51 47 0 575
66 691 86 63 12 91 20 80 25 -11 3 -161 12 -334 18 -173 7 -407 16 -520 21
-113 6 -223 10 -245 10 -39 -1 -39 -1 31 -29z"/>
<path d="M3808 5189 c-59 -4 -123 -12 -142 -19 -19 -6 -52 -12 -74 -13 -23 0
-38 -5 -36 -9 5 -7 -13 -12 -43 -11 -7 1 -10 -3 -7 -8 3 -5 1 -9 -5 -9 -6 0
-39 -13 -73 -28 -35 -16 -77 -34 -95 -41 -17 -7 -39 -21 -49 -32 -9 -10 -23
-19 -31 -19 -7 0 -13 -4 -13 -10 0 -5 -4 -10 -9 -10 -12 0 -71 -52 -71 -62 0
-11 98 -10 194 2 45 5 268 30 496 54 l415 45 58 -24 c205 -83 418 -280 520
-482 15 -28 32 -55 38 -59 9 -5 83 23 137 52 6 3 -31 84 -38 84 -5 0 -11 8
-14 18 -3 9 -20 32 -36 50 -17 17 -28 32 -24 32 3 0 -9 17 -28 38 -18 20 -37
37 -42 37 -5 0 -12 10 -17 23 -5 12 -15 22 -24 22 -8 0 -15 5 -15 10 0 14 -54
64 -135 125 -22 16 -48 37 -58 46 -29 27 -243 129 -270 129 -17 0 -28 7 -32
19 -5 16 -14 19 -45 18 -21 -2 -36 1 -34 5 3 5 -9 9 -25 10 -17 1 -43 3 -58 5
-16 1 -64 5 -108 8 -44 3 -84 7 -90 8 -5 2 -58 0 -117 -4z"/>
</g>
</svg>
